<?xml version="1.0" standalone="no"?>
<!DOCTYPE svg PUBLIC "-//W3C//DTD SVG 20010904//EN"
 "http://www.w3.org/TR/2001/REC-SVG-20010904/DTD/svg10.dtd">
<svg version="1.0" xmlns="http://www.w3.org/2000/svg"
 width="174.000000pt" height="167.000000pt" viewBox="0 0 174.000000 167.000000"
 preserveAspectRatio="xMidYMid meet">

<g transform="translate(0.000000,167.000000) scale(0.100000,-0.100000)"
fill="#000000" stroke="none">
<path d="M421 1436 c-25 -14 -39 -37 -40 -65 -1 -8 97 -113 216 -233 l218
-218 -207 -208 c-113 -114 -211 -218 -218 -230 -25 -50 33 -112 85 -91 11 4
112 100 225 213 113 113 209 206 215 206 5 0 105 -95 221 -211 169 -169 217
-212 238 -212 37 0 66 30 66 67 0 27 -27 58 -215 246 l-215 215 216 216 c203
203 215 218 212 249 -4 42 -45 75 -79 65 -13 -4 -120 -102 -237 -218 l-212
-212 -213 212 c-116 116 -221 214 -232 217 -11 3 -31 -1 -44 -8z"/>
</g>
</svg>
